0
SECTION
2
HEADER
9
$INSUNITS
70
1
9
$ACADVER
1
AC1014
9
$HANDSEED
5
FFFF
0
ENDSEC
0
SECTION
2
TABLES
0
TABLE
2
VPORT
5
8
100
AcDbSymbolTable
0
ENDTAB
0
TABLE
2
LTYPE
5
5
100
AcDbSymbolTable
0
LTYPE
5
14
100
AcDbSymbolTableRecord
100
AcDbLinetypeTableRecord
2
BYBLOCK
70
0
0
LTYPE
5
15
100
AcDbSymbolTableRecord
100
AcDbLinetypeTableRecord
2
BYLAYER
70
0
0
ENDTAB
0
TABLE
2
LAYER
5
2
100
AcDbSymbolTable
70
2
0
LAYER
5
50
100
AcDbSymbolTableRecord
100
AcDbLayerTableRecord
2
0
70
0
6
CONTINUOUS
0
ENDTAB
0
TABLE
2
STYLE
5
3
100
AcDbSymbolTable
70
1
0
STYLE
5
11
100
AcDbSymbolTableRecord
100
AcDbTextStyleTableRecord
2
STANDARD
70
0
0
ENDTAB
0
TABLE
2
VIEW
5
6
100
AcDbSymbolTable
70
0
0
ENDTAB
0
TABLE
2
UCS
5
7
100
AcDbSymbolTable
70
0
0
ENDTAB
0
TABLE
2
APPID
5
9
100
AcDbSymbolTable
70
2
0
APPID
5
12
100
AcDbSymbolTableRecord
100
AcDbRegAppTableRecord
2
ACAD
70
0
0
ENDTAB
0
TABLE
2
DIMSTYLE
5
A
100
AcDbSymbolTable
70
1
0
ENDTAB
0
TABLE
2
BLOCK_RECORD
5
1
100
AcDbSymbolTable
70
1
0
BLOCK_RECORD
5
1F
100
AcDbSymbolTableRecord
100
AcDbBlockTableRecord
2
*MODEL_SPACE
0
BLOCK_RECORD
5
1B
100
AcDbSymbolTableRecord
100
AcDbBlockTableRecord
2
*PAPER_SPACE
0
ENDTAB
0
ENDSEC
0
SECTION
2
BLOCKS
0
BLOCK
5
20
100
AcDbEntity
100
AcDbBlockBegin
2
*MODEL_SPACE
0
ENDBLK
5
21
100
AcDbEntity
100
AcDbBlockEnd
0
BLOCK
5
1C
100
AcDbEntity
100
AcDbBlockBegin
2
*PAPER_SPACE
0
ENDBLK
5
1D
100
AcDbEntity
100
AcDbBlockEnd
0
ENDSEC
0
SECTION
2
ENTITIES
0
LWPOLYLINE
5
100
100
AcDbEntity
8
0
100
AcDbPolyline
90
4
70
1
43
0.0
10
-13.924777994658633
20
-7.8625614710993403
10
-13.924777994658633
20
-8.1745614710993415
10
-11.362777994658634
20
-8.1745614710993415
10
-11.362777994658634
20
-7.8625614710993403
0
LWPOLYLINE
5
101
100
AcDbEntity
8
0
100
AcDbPolyline
90
4
70
1
43
0.0
10
8.4355262413419094
20
-16.592887894242473
10
9.3442219151546535
20
-13.668829725807036
10
9.0462773859084571
20
-13.57623891906975
10
8.137581712095713
20
-16.500297087505185
0
LWPOLYLINE
5
102
100
AcDbEntity
8
0
100
AcDbPolyline
90
4
70
1
43
0.0
10
13.924777994658633
20
-8.1745614710993415
10
13.924777994658633
20
-7.8625614710993403
10
11.362777994658634
20
-7.8625614710993403
10
11.362777994658634
20
-8.1745614710993415
0
LWPOLYLINE
5
103
100
AcDbEntity
8
0
100
AcDbPolyline
90
4
70
1
43
0.0
10
-8.4355262413419094
20
-16.592887894242473
10
-8.1375817120957148
20
-16.500297087505185
10
-9.0462773859084571
20
-13.57623891906975
10
-9.3442219151546535
20
-13.668829725807036
0
LWPOLYLINE
5
104
100
AcDbEntity
8
0
100
AcDbPolyline
90
4
70
1
43
0.0
10
-2.9689999999999994
20
-2.2809999999999997
10
-2.9689999999999994
20
-1.9689999999999999
10
-6.0309999999999988
20
-1.9689999999999999
10
-6.0309999999999988
20
-2.2809999999999997
0
LWPOLYLINE
5
105
100
AcDbEntity
8
0
100
AcDbPolyline
90
4
70
1
43
0.0
10
6.3569892748401733
20
-22.229999573008982
10
6.6549338040863697
20
-22.32259037974627
10
7.5636294778991147
20
-19.398532211310833
10
7.2656849486529183
20
-19.305941404573549
0
LWPOLYLINE
5
106
100
AcDbEntity
8
0
100
AcDbPolyline
90
4
70
1
43
0.0
10
6.0309999999999988
20
-2.2809999999999997
10
6.0309999999999988
20
-1.9689999999999999
10
2.9689999999999994
20
-1.9689999999999999
10
2.9689999999999994
20
-2.2809999999999997
0
LWPOLYLINE
5
107
100
AcDbEntity
8
0
100
AcDbPolyline
90
4
70
1
43
0.0
10
-6.6549338040863697
20
-22.32259037974627
10
-6.3569892748401751
20
-22.229999573008982
10
-7.2656849486529183
20
-19.305941404573549
10
-7.5636294778991129
20
-19.398532211310833
0
CIRCLE
5
108
100
AcDbEntity
8
0
100
AcDbCircle
10
14.231513233945746
20
-1.6707981209852718
30
0
40
0.1660000000000014
210
0
220
-0
230
1
0
CIRCLE
5
109
100
AcDbEntity
8
0
100
AcDbCircle
10
11.866541344772708
20
-2.4812967103864545
30
0
40
0.16599999999999998
210
0
220
-0
230
1
0
CIRCLE
5
110
100
AcDbEntity
8
0
100
AcDbCircle
10
13.421014644544567
20
0.69417376818776966
30
0
40
0.1660000000000014
210
0
220
-0
230
1
0
CIRCLE
5
111
100
AcDbEntity
8
0
100
AcDbCircle
10
-11.056042755371536
20
-0.11632482121342308
30
0
40
0.16599999999999998
210
0
220
-0
230
1
0
CIRCLE
5
112
100
AcDbEntity
8
0
100
AcDbCircle
10
-12.643777994658645
20
-0.89356147109936068
30
0
40
0.56250000000000033
210
0
220
-0
230
1
0
CIRCLE
5
113
100
AcDbEntity
8
0
100
AcDbCircle
10
3.8750000000000142
20
-28.49999985356969
30
0
40
0.16600000000000067
210
0
220
-0
230
1
0
CIRCLE
5
114
100
AcDbEntity
8
0
100
AcDbCircle
10
-13.421014644544577
20
0.69417376818774967
30
0
40
0.1660000000000014
210
0
220
-0
230
1
0
CIRCLE
5
115
100
AcDbEntity
8
0
100
AcDbCircle
10
-11.866541344772715
20
-2.4812967103864723
30
0
40
0.16599999999999998
210
0
220
-0
230
1
0
CIRCLE
5
116
100
AcDbEntity
8
0
100
AcDbCircle
10
3.8750000000000093
20
-20.99999985356968
30
0
40
0.16600000000000067
210
0
220
-0
230
1
0
CIRCLE
5
117
100
AcDbEntity
8
0
100
AcDbCircle
10
-14.231513233945757
20
-1.6707981209852927
30
0
40
0.1660000000000014
210
0
220
-0
230
1
0
LWPOLYLINE
5
118
100
AcDbEntity
8
0
100
AcDbPolyline
90
4
70
1
43
0.0
10
-13.612527994658636
20
-9.6748114710993605
10
-13.612527994658626
20
-12.674811471099359
42
0.99999999999999989
10
-13.175027994658631
20
-12.674811471099359
10
-13.175027994658635
20
-9.6748114710993605
42
0.99999999999999989
0
LWPOLYLINE
5
119
100
AcDbEntity
8
0
100
AcDbPolyline
90
8
70
1
43
0.0
10
2.1750000000000118
20
-21.99999985356969
42
-0.41421356237308848
10
2.8750000000000102
20
-22.699999853569693
10
2.8750000000000111
20
-26.79999985356968
42
-0.41421356237308776
10
2.1750000000000149
20
-27.49999985356968
10
-2.1749999999999869
20
-27.499999853569687
42
-0.41421356237308937
10
-2.8749999999999867
20
-26.799999853569684
10
-2.8749999999999893
20
-22.699999853569697
42
-0.41421356237309181
10
-2.1749999999999918
20
-21.999999853569694
0
LWPOLYLINE
5
120
100
AcDbEntity
8
0
100
AcDbPolyline
90
4
70
1
43
0.0
10
11.675027994658635
20
-9.6748114710993409
42
-0.99999999999999989
10
12.112527994658633
20
-9.6748114710993409
10
12.112527994658633
20
-12.674811471099339
42
-0.99999999999999989
10
11.675027994658635
20
-12.674811471099339
0
LWPOLYLINE
5
121
100
AcDbEntity
8
0
100
AcDbPolyline
90
4
70
1
43
0.0
10
13.175027994658635
20
-9.6748114710993391
42
-0.99999999999999989
10
13.612527994658635
20
-9.6748114710993409
10
13.612527994658635
20
-12.674811471099339
42
-0.99999999999999989
10
13.175027994658635
20
-12.674811471099339
0
CIRCLE
5
122
100
AcDbEntity
8
0
100
AcDbCircle
10
-3.8749999999999862
20
-28.499999853569694
30
0
40
0.16600000000000067
210
0
220
-0
230
1
0
LWPOLYLINE
5
123
100
AcDbEntity
8
0
100
AcDbPolyline
90
4
70
1
43
0.0
10
-11.675027994658628
20
-12.674811471099357
42
-0.99999999999999989
10
-12.112527994658628
20
-12.674811471099357
10
-12.112527994658631
20
-9.6748114710993605
42
-0.99999999999999989
10
-11.675027994658631
20
-9.6748114710993587
0
CIRCLE
5
124
100
AcDbEntity
8
0
100
AcDbCircle
10
12.643777994658635
20
-0.89356147109934181
30
0
40
0.56250000000000033
210
0
220
-0
230
1
0
CIRCLE
5
125
100
AcDbEntity
8
0
100
AcDbCircle
10
11.056042755371525
20
-0.11632482121340665
30
0
40
0.16599999999999998
210
0
220
-0
230
1
0
CIRCLE
5
126
100
AcDbEntity
8
0
100
AcDbCircle
10
-3.8749999999999925
20
-20.999999853569687
30
0
40
0.16600000000000067
210
0
220
-0
230
1
0
LWPOLYLINE
5
127
100
AcDbEntity
8
0
100
AcDbPolyline
90
12
70
1
43
0.0
10
-16.333649934637268
20
-1.5624000663959976
42
-0.27461096254416978
10
-14.996192042813236
20
2.0268234600432655
10
-11.995379123137681
20
0.99841604023908737
42
0.16659882274036386
10
11.995379123137653
20
0.99841604023907971
10
14.996192042813224
20
2.0268234600432939
42
-0.27461096254417
10
16.333649934637265
20
-1.5624000663959741
10
14.143777994658635
20
-13.643561471099339
10
11.143777994658635
20
-13.643561471099339
10
5.7500000000000169
20
-30.999999999999989
10
-5.749999999999984
20
-31
10
-11.143777994658628
20
-13.643561471099357
10
-14.143777994658629
20
-13.643561471099362
0
ENDSEC
0
SECTION
2
OBJECTS
0
DICTIONARY
5
C
100
AcDbDictionary
3
ACAD_GROUP
350
D
3
ACAD_MLINESTYLE
350
17
0
DICTIONARY
5
D
100
AcDbDictionary
0
DICTIONARY
5
1A
330
C
100
AcDbDictionary
0
DICTIONARY
5
17
100
AcDbDictionary
0
ENDSEC
0
EOF
