0
SECTION
2
HEADER
9
$INSUNITS
70
1
9
$ACADVER
1
AC1014
9
$HANDSEED
5
FFFF
0
ENDSEC
0
SECTION
2
TABLES
0
TABLE
2
VPORT
5
8
100
AcDbSymbolTable
0
ENDTAB
0
TABLE
2
LTYPE
5
5
100
AcDbSymbolTable
0
LTYPE
5
14
100
AcDbSymbolTableRecord
100
AcDbLinetypeTableRecord
2
BYBLOCK
70
0
0
LTYPE
5
15
100
AcDbSymbolTableRecord
100
AcDbLinetypeTableRecord
2
BYLAYER
70
0
0
ENDTAB
0
TABLE
2
LAYER
5
2
100
AcDbSymbolTable
70
2
0
LAYER
5
50
100
AcDbSymbolTableRecord
100
AcDbLayerTableRecord
2
0
70
0
6
CONTINUOUS
0
ENDTAB
0
TABLE
2
STYLE
5
3
100
AcDbSymbolTable
70
1
0
STYLE
5
11
100
AcDbSymbolTableRecord
100
AcDbTextStyleTableRecord
2
STANDARD
70
0
0
ENDTAB
0
TABLE
2
VIEW
5
6
100
AcDbSymbolTable
70
0
0
ENDTAB
0
TABLE
2
UCS
5
7
100
AcDbSymbolTable
70
0
0
ENDTAB
0
TABLE
2
APPID
5
9
100
AcDbSymbolTable
70
2
0
APPID
5
12
100
AcDbSymbolTableRecord
100
AcDbRegAppTableRecord
2
ACAD
70
0
0
ENDTAB
0
TABLE
2
DIMSTYLE
5
A
100
AcDbSymbolTable
70
1
0
ENDTAB
0
TABLE
2
BLOCK_RECORD
5
1
100
AcDbSymbolTable
70
1
0
BLOCK_RECORD
5
1F
100
AcDbSymbolTableRecord
100
AcDbBlockTableRecord
2
*MODEL_SPACE
0
BLOCK_RECORD
5
1B
100
AcDbSymbolTableRecord
100
AcDbBlockTableRecord
2
*PAPER_SPACE
0
ENDTAB
0
ENDSEC
0
SECTION
2
BLOCKS
0
BLOCK
5
20
100
AcDbEntity
100
AcDbBlockBegin
2
*MODEL_SPACE
0
ENDBLK
5
21
100
AcDbEntity
100
AcDbBlockEnd
0
BLOCK
5
1C
100
AcDbEntity
100
AcDbBlockBegin
2
*PAPER_SPACE
0
ENDBLK
5
1D
100
AcDbEntity
100
AcDbBlockEnd
0
ENDSEC
0
SECTION
2
ENTITIES
0
LWPOLYLINE
5
100
100
AcDbEntity
8
0
100
AcDbPolyline
90
8
70
1
43
0.0
10
-13.393777994658635
20
-6.9996475451757947
42
-0.41421356237309587
10
-13.893777994658633
20
-6.4996475451757947
10
-13.893777994658633
20
-5.5000001595714894
42
-0.4142135623730881
10
-13.393777994658631
20
-5.0000001595714894
10
-11.900000363822995
20
-5.0000001595714894
42
-0.41421356237309503
10
-11.400000363822997
20
-5.5000001595714894
10
-11.400000363822997
20
-6.4996475451757947
42
-0.41421356237309664
10
-11.900000363822995
20
-6.9996475451757947
0
LWPOLYLINE
5
101
100
AcDbEntity
8
0
100
AcDbPolyline
90
4
70
1
43
0.0
10
-11.362777994658634
20
-7.8625614710993403
10
-13.924777994658633
20
-7.8625614710993403
10
-13.924777994658633
20
-8.1745614710993415
10
-11.362777994658634
20
-8.1745614710993415
0
LWPOLYLINE
5
102
100
AcDbEntity
8
0
100
AcDbPolyline
90
4
70
1
43
0.0
10
-11.675027994658659
20
-12.674811471099339
42
-0.99999999999999989
10
-12.112527994658658
20
-12.674811471099339
10
-12.112527994658658
20
-9.6748114710993409
42
-0.99999999999999989
10
-11.675027994658659
20
-9.6748114710993409
0
CIRCLE
5
103
100
AcDbEntity
8
0
100
AcDbCircle
10
-13.421014644544593
20
0.69417376818776966
30
0
40
0.1660000000000014
210
0
220
-0
230
1
0
CIRCLE
5
104
100
AcDbEntity
8
0
100
AcDbCircle
10
-11.05604275537155
20
-0.11632482121340665
30
0
40
0.16599999999999998
210
0
220
-0
230
1
0
CIRCLE
5
105
100
AcDbEntity
8
0
100
AcDbCircle
10
-14.231513233945773
20
-1.6707981209852718
30
0
40
0.1660000000000014
210
0
220
-0
230
1
0
CIRCLE
5
106
100
AcDbEntity
8
0
100
AcDbCircle
10
-12.643777994658661
20
-0.89356147109934181
30
0
40
0.56250000000000033
210
0
220
-0
230
1
0
CIRCLE
5
107
100
AcDbEntity
8
0
100
AcDbCircle
10
-11.866541344772733
20
-2.4812967103864545
30
0
40
0.16599999999999998
210
0
220
-0
230
1
0
LWPOLYLINE
5
108
100
AcDbEntity
8
0
100
AcDbPolyline
90
4
70
1
43
0.0
10
-13.175027994658663
20
-12.674811471099339
42
-0.99999999999999989
10
-13.612527994658661
20
-12.674811471099339
10
-13.612527994658661
20
-9.6748114710993391
42
-0.99999999999999989
10
-13.175027994658663
20
-9.6748114710993409
0
LWPOLYLINE
5
109
100
AcDbEntity
8
0
100
AcDbPolyline
90
7
70
1
43
0.0
10
-14.99619204281325
20
2.0268234600432948
10
-11.995379123137688
20
0.99841604023907615
42
0.020885853183226558
10
-9.0332268901059063
20
0.11963194235785421
10
-9.0332268901059063
20
-1.9999999999999907
10
-11.143777994658658
20
-13.643561471099339
10
-14.143777994658663
20
-13.643561471099339
10
-16.333649934637293
20
-1.5624000663959745
42
-0.27461096254417
0
ENDSEC
0
SECTION
2
OBJECTS
0
DICTIONARY
5
C
100
AcDbDictionary
3
ACAD_GROUP
350
D
3
ACAD_MLINESTYLE
350
17
0
DICTIONARY
5
D
100
AcDbDictionary
0
DICTIONARY
5
1A
330
C
100
AcDbDictionary
0
DICTIONARY
5
17
100
AcDbDictionary
0
ENDSEC
0
EOF
