0
SECTION
2
HEADER
9
$INSUNITS
70
1
9
$ACADVER
1
AC1014
9
$HANDSEED
5
FFFF
0
ENDSEC
0
SECTION
2
TABLES
0
TABLE
2
VPORT
5
8
100
AcDbSymbolTable
0
ENDTAB
0
TABLE
2
LTYPE
5
5
100
AcDbSymbolTable
0
LTYPE
5
14
100
AcDbSymbolTableRecord
100
AcDbLinetypeTableRecord
2
BYBLOCK
70
0
0
LTYPE
5
15
100
AcDbSymbolTableRecord
100
AcDbLinetypeTableRecord
2
BYLAYER
70
0
0
ENDTAB
0
TABLE
2
LAYER
5
2
100
AcDbSymbolTable
70
2
0
LAYER
5
50
100
AcDbSymbolTableRecord
100
AcDbLayerTableRecord
2
0
70
0
6
CONTINUOUS
0
ENDTAB
0
TABLE
2
STYLE
5
3
100
AcDbSymbolTable
70
1
0
STYLE
5
11
100
AcDbSymbolTableRecord
100
AcDbTextStyleTableRecord
2
STANDARD
70
0
0
ENDTAB
0
TABLE
2
VIEW
5
6
100
AcDbSymbolTable
70
0
0
ENDTAB
0
TABLE
2
UCS
5
7
100
AcDbSymbolTable
70
0
0
ENDTAB
0
TABLE
2
APPID
5
9
100
AcDbSymbolTable
70
2
0
APPID
5
12
100
AcDbSymbolTableRecord
100
AcDbRegAppTableRecord
2
ACAD
70
0
0
ENDTAB
0
TABLE
2
DIMSTYLE
5
A
100
AcDbSymbolTable
70
1
0
ENDTAB
0
TABLE
2
BLOCK_RECORD
5
1
100
AcDbSymbolTable
70
1
0
BLOCK_RECORD
5
1F
100
AcDbSymbolTableRecord
100
AcDbBlockTableRecord
2
*MODEL_SPACE
0
BLOCK_RECORD
5
1B
100
AcDbSymbolTableRecord
100
AcDbBlockTableRecord
2
*PAPER_SPACE
0
ENDTAB
0
ENDSEC
0
SECTION
2
BLOCKS
0
BLOCK
5
20
100
AcDbEntity
100
AcDbBlockBegin
2
*MODEL_SPACE
0
ENDBLK
5
21
100
AcDbEntity
100
AcDbBlockEnd
0
BLOCK
5
1C
100
AcDbEntity
100
AcDbBlockBegin
2
*PAPER_SPACE
0
ENDBLK
5
1D
100
AcDbEntity
100
AcDbBlockEnd
0
ENDSEC
0
SECTION
2
ENTITIES
0
LWPOLYLINE
5
100
100
AcDbEntity
8
0
100
AcDbPolyline
90
4
70
1
43
0.0
10
11.362777994658634
20
8.1745614710993415
10
11.362777994658634
20
7.8625614710993403
10
13.924777994658633
20
7.8625614710993403
10
13.924777994658633
20
8.1745614710993415
0
LWPOLYLINE
5
101
100
AcDbEntity
8
0
100
AcDbPolyline
90
4
70
1
43
0.0
10
-13.924777994658633
20
7.8625614710993403
10
-11.362777994658634
20
7.8625614710993403
10
-11.362777994658634
20
8.1745614710993415
10
-13.924777994658633
20
8.1745614710993415
0
LWPOLYLINE
5
102
100
AcDbEntity
8
0
100
AcDbPolyline
90
4
70
1
43
0.0
10
10.423324997627091
20
9.1450883882484302
10
10.721269526873288
20
9.23767919498572
10
9.3674257437466597
20
13.594162984797103
10
9.0694812145004633
20
13.501572178059817
0
LWPOLYLINE
5
103
100
AcDbEntity
8
0
100
AcDbPolyline
90
4
70
1
43
0.0
10
2.968999999999999
20
2.2809999999999997
10
2.968999999999999
20
1.9689999999999999
10
6.0309999999999988
20
1.9689999999999999
10
6.0309999999999988
20
2.2809999999999997
0
LWPOLYLINE
5
104
100
AcDbEntity
8
0
100
AcDbPolyline
90
4
70
1
43
0.0
10
-6.0309999999999988
20
1.9689999999999999
10
-2.968999999999999
20
1.9689999999999999
10
-2.9689999999999994
20
2.2809999999999997
10
-6.0309999999999997
20
2.2809999999999997
0
LWPOLYLINE
5
105
100
AcDbEntity
8
0
100
AcDbPolyline
90
4
70
1
43
0.0
10
-10.423324997627091
20
9.1450883882484302
10
-9.0694812145004633
20
13.501572178059817
10
-9.3674257437466597
20
13.594162984797103
10
-10.721269526873286
20
9.2376791949857182
0
CIRCLE
5
106
100
AcDbEntity
8
0
100
AcDbCircle
10
11.866541344772715
20
2.4812967103864723
30
0
40
0.16599999999999998
210
0
220
0
230
1
0
CIRCLE
5
107
100
AcDbEntity
8
0
100
AcDbCircle
10
-11.866541344772708
20
2.4812967103864545
30
0
40
0.16599999999999998
210
0
220
0
230
1
0
CIRCLE
5
108
100
AcDbEntity
8
0
100
AcDbCircle
10
14.231513233945757
20
1.6707981209852927
30
0
40
0.1660000000000014
210
0
220
0
230
1
0
CIRCLE
5
109
100
AcDbEntity
8
0
100
AcDbCircle
10
-12.643777994658635
20
0.89356147109934181
30
0
40
0.56250000000000033
210
0
220
0
230
1
0
CIRCLE
5
110
100
AcDbEntity
8
0
100
AcDbCircle
10
-11.056042755371525
20
0.11632482121340665
30
0
40
0.16599999999999998
210
0
220
0
230
1
0
CIRCLE
5
111
100
AcDbEntity
8
0
100
AcDbCircle
10
-14.231513233945746
20
1.6707981209852718
30
0
40
0.1660000000000014
210
0
220
0
230
1
0
CIRCLE
5
112
100
AcDbEntity
8
0
100
AcDbCircle
10
-13.421014644544567
20
-0.69417376818776966
30
0
40
0.1660000000000014
210
0
220
0
230
1
0
CIRCLE
5
113
100
AcDbEntity
8
0
100
AcDbCircle
10
11.056042755371536
20
0.11632482121342308
30
0
40
0.16599999999999998
210
0
220
0
230
1
0
CIRCLE
5
114
100
AcDbEntity
8
0
100
AcDbCircle
10
12.643777994658645
20
0.89356147109936068
30
0
40
0.56250000000000033
210
0
220
0
230
1
0
CIRCLE
5
115
100
AcDbEntity
8
0
100
AcDbCircle
10
13.421014644544577
20
-0.69417376818774967
30
0
40
0.1660000000000014
210
0
220
0
230
1
0
LWPOLYLINE
5
116
100
AcDbEntity
8
0
100
AcDbPolyline
90
14
70
1
43
0.0
10
11.143777994658663
20
8.6160614710993002
10
15.055079549984001
20
8.616061471099286
10
16.333649934637268
20
1.5624000663959976
42
-0.27461096254416978
10
14.996192042813236
20
-2.026823460043266
10
11.995379123137681
20
-0.9984160402390817
42
0.16659882274036392
10
-11.995379123137647
20
-0.99841604023907471
10
-14.99619204281322
20
-2.0268234600432917
42
-0.27461096254417
10
-16.333649934637261
20
1.5624000663959741
10
-15.055079549983967
20
8.6160614710993411
10
-11.143777994658635
20
8.6160614710993411
10
-9.3631855574030922
20
14.345763956603136
10
-0.74191351552311458
20
11.666572177251201
42
0.15180201198249529
10
0.74191351552315843
20
11.666572177251197
10
9.3631855574031473
20
14.345763956603102
0
ENDSEC
0
SECTION
2
OBJECTS
0
DICTIONARY
5
C
100
AcDbDictionary
3
ACAD_GROUP
350
D
3
ACAD_MLINESTYLE
350
17
0
DICTIONARY
5
D
100
AcDbDictionary
0
DICTIONARY
5
1A
330
C
100
AcDbDictionary
0
DICTIONARY
5
17
100
AcDbDictionary
0
ENDSEC
0
EOF
